<svg id="codalyze_logo_svg__Layer_1" x="0" y="0" viewBox="0 0 125.2 30" xml:space="preserve" width="200px" height="54px"><style>.codalyze_logo_svg__st0{fill:#55a7a2}.codalyze_logo_svg__st2{fill:#4f9b96}.codalyze_logo_svg__st3{font-family:'roboto'}.codalyze_logo_svg__st4{font-size:13px}</style><path class="codalyze_logo_svg__st0" d="M-253.5-27.6c-.6 1.4-1.9 1.5-3.2 1.5-6.1 0-6.1 0-7.9 5.7-1 3.1-1.9 6.2-3 9.3-.2.6 0 2-1.1 1.5-1-.2-1.7-1.3-1.4-2.3 0-.1 0-.2.1-.3 1.3-3.8 2.4-7.6 3.6-11.3.3-.8.5-1.6.8-2.7h-6.7c-.5 0-1.2.2-1.3-.6 0-.7.2-1.4 1.1-1.6.4 0 .8-.1 1.2 0h15.9l2.1.3c-.2.2-.2.3-.2.5z" transform="translate(278 34)"></path><path class="codalyze_logo_svg__st0" d="M-265.7-11.2c0-2.4 1.3-4.6 3.4-5.8 1.3-.8 1.7-1.6.3-2.6-.7-.4-1-1.3-.6-2 .4-1 .5-1.5 1.6-.5 4.5 3.8 4.5 3.8-.1 7.4-1.5 1.1-2.9 2.3-4.6 3.5z" transform="translate(278 34)"></path><path d="M-272.1-12.7c-.4-.4-1-.9-1.4-1.3-3.4-3.3-3.4-3.3.4-6.3 1-.8 1.9-1.6 2.9-2.3.5-.3.9-1.1 1.5-.6.5.5 0 1.1-.1 1.7-.3 1.5-1.6 2.1-2.6 2.8-1.2.9-2.2 1.7-.3 2.9.8.5.7 1.3.4 2.1-.1.5-.2.9-.8 1z" fill="#4ea39e" transform="translate(278 34)"></path><text transform="translate(30.897 20)" class="codalyze_logo_svg__st2 codalyze_logo_svg__st3 codalyze_logo_svg__st4">Codalyze Tech</text></svg>